<svg width="130" height="130" viewBox="0 0 130 130" fill="none" xmlns="http://www.w3.org/2000/svg">
<path d="M125 65C125 98.1371 98.1371 125 65 125C31.8629 125 5 98.1371 5 65C5 31.8629 31.8629 5 65 5C98.1371 5 125 31.8629 125 65Z" fill="#41B883"/>
<path fill-rule="evenodd" clip-rule="evenodd" d="M0.743042 64.7202C0.743042 29.1845 29.5504 0.377098 65.0861 0.377098C100.622 0.377098 129.429 29.1845 129.429 64.7202C129.429 100.256 100.622 129.063 65.0861 129.063C29.5504 129.063 0.743042 100.256 0.743042 64.7202ZM30.4398 59.7707C30.4398 57.0372 32.6558 54.8212 35.3893 54.8212C38.1228 54.8212 40.3388 57.0372 40.3388 59.7707C40.3388 62.5042 38.1228 64.7202 35.3893 64.7202C32.6558 64.7202 30.4398 62.5042 30.4398 59.7707ZM65.0861 30.0739C62.3526 30.0739 60.1366 32.2898 60.1366 35.0234C60.1366 37.7569 62.3526 39.9728 65.0861 39.9728C67.8196 39.9728 70.0356 37.7569 70.0356 35.0234C70.0356 32.2898 67.8196 30.0739 65.0861 30.0739ZM89.8334 69.6696C89.8334 66.9361 92.0494 64.7202 94.7829 64.7202C97.5164 64.7202 99.7324 66.9361 99.7324 69.6696C99.7324 72.4031 97.5164 74.6191 94.7829 74.6191C92.0494 74.6191 89.8334 72.4031 89.8334 69.6696ZM65.0861 20.175C56.8856 20.175 50.2377 26.8228 50.2377 35.0234C50.2377 41.4884 54.3696 46.9885 60.1366 49.0269V95.0677L40.3388 81.8691V73.7742C46.1058 71.7358 50.2377 66.2358 50.2377 59.7707C50.2377 51.5701 43.5898 44.9223 35.3893 44.9223C27.1888 44.9223 20.5409 51.5701 20.5409 59.7707C20.5409 66.2358 24.6728 71.7358 30.4398 73.7742V87.1669L60.1366 106.965V122.151C30.6196 119.641 7.44544 94.8869 7.44544 64.7202C7.50664 32.8862 33.2521 7.14069 65.0861 7.0795C96.9201 7.14069 122.666 32.8862 122.727 64.7202C122.727 66.0719 122.68 67.4127 122.589 68.7412C120.974 92.1691 105.36 111.746 84.0518 119.168C79.6028 120.717 74.9055 121.737 70.0356 122.151V116.864L99.7324 97.0658V83.6731C105.499 81.6347 109.631 76.1347 109.631 69.6696C109.631 61.4691 102.983 54.8212 94.7829 54.8212C86.5823 54.8212 79.9345 61.4691 79.9345 69.6696C79.9345 76.1347 84.0663 81.6347 89.8334 83.6731V91.7681L70.0356 104.967V49.0269C75.8026 46.9885 79.9345 41.4884 79.9345 35.0234C79.9345 26.8228 73.2866 20.175 65.0861 20.175Z" fill="#121212"/>
</svg>
